<?xml version="1.0" encoding="utf-8"?>
<!-- Generator: Adobe Illustrator 24.0.1, SVG Export Plug-In . SVG Version: 6.00 Build 0)  -->
<svg version="1.1" id="Calque_1" xmlns="http://www.w3.org/2000/svg" xmlns:xlink="http://www.w3.org/1999/xlink" x="0px" y="0px"
	 viewBox="0 0 250 250" style="enable-background:new 0 0 250 250;" xml:space="preserve">
<style type="text/css">
	.st0{fill:#E94364;}
	.st1{fill:#FFFFFF;}
</style>
<path class="st0" d="M206,148.9c0,45.9-37.2,78.9-83,78.9s-83-33-83-78.9C40,72.1,123,7.8,123,7.8S206,72.1,206,148.9z"/>
<path class="st0" d="M123,231.8c-23.4,0-45.3-8.3-61.4-23.3C45.1,193.1,36,172,36,148.9C36,108.1,59.1,71,78.4,47
	c20.8-25.7,41.3-41.7,42.2-42.4c1.4-1.1,3.5-1.1,4.9,0c0.9,0.7,21.4,16.7,42.2,42.4c19.3,23.9,42.4,61,42.4,101.9
	c0,23.1-9.1,44.2-25.6,59.6C168.3,223.5,146.4,231.8,123,231.8z M123,13c-13.6,11.3-79,69.4-79,135.9c0,42.7,34,74.9,79,74.9
	c45,0,79-32.2,79-74.9C202,82.3,136.6,24.3,123,13z"/>
<g id="XMLID_8_">
	<path class="st0" d="M234.2,77c0,20.5-16.6,35.3-37.2,35.3c-20.5,0-37.2-14.8-37.2-35.3c0-34.4,37.2-63.2,37.2-63.2
		S234.2,42.6,234.2,77z"/>
	<path class="st0" d="M197,116.3c-23.1,0-41.2-17.3-41.2-39.3c0-35.9,37.2-65.1,38.8-66.4c1.4-1.1,3.5-1.1,4.9,0
		c1.6,1.2,38.8,30.4,38.8,66.4C238.2,99.4,220.5,116.3,197,116.3z M197,19c-8.1,7-33.2,31-33.2,58c0,17.8,14.3,31.3,33.2,31.3
		s33.2-13.5,33.2-31.3C230.2,50,205.1,26,197,19z"/>
</g>
<g id="XMLID_5_">
	<g id="XMLID_2_">
		<path class="st1" d="M208.7,77.2h-23.3c-2.2,0-4-1.8-4-4s1.8-4,4-4h23.3c2.2,0,4,1.8,4,4S210.9,77.2,208.7,77.2z"/>
	</g>
	<g id="XMLID_1_">
		<path class="st1" d="M197,88.8c-2.2,0-4-1.8-4-4V61.6c0-2.2,1.8-4,4-4s4,1.8,4,4v23.2C201,87,199.2,88.8,197,88.8z"/>
	</g>
</g>
<g id="XMLID_6_">
	<g id="XMLID_7_">
		<path class="st1" d="M135.6,147l-2.1-5.4H116l-2.1,5.5c-0.8,2.1-1.5,3.6-2.1,4.4c-0.6,0.8-1.5,1.1-2.8,1.1c-1.1,0-2.1-0.4-2.9-1.2
			s-1.3-1.7-1.3-2.7c0-0.6,0.1-1.2,0.3-1.8c0.2-0.6,0.5-1.5,1-2.6l11-27.9c0.3-0.8,0.7-1.8,1.1-2.9s0.9-2.1,1.4-2.8
			c0.5-0.7,1.2-1.3,2-1.8s1.8-0.7,3-0.7s2.2,0.2,3,0.7c0.8,0.5,1.5,1.1,2,1.8c0.5,0.7,0.9,1.5,1.3,2.3c0.3,0.8,0.8,1.9,1.3,3.3
			l11.2,27.7c0.9,2.1,1.3,3.6,1.3,4.6s-0.4,1.9-1.2,2.7s-1.8,1.2-3,1.2c-0.7,0-1.3-0.1-1.8-0.4s-0.9-0.6-1.2-1s-0.7-1.1-1.1-1.9
			S135.9,147.6,135.6,147z M118.4,135h12.8l-6.5-17.7L118.4,135z"/>
	</g>
</g>
</svg>
